<svg xmlns="http://www.w3.org/2000/svg" width="171.594" height="45.62" viewBox="0 0 171.594 45.62">
  <metadata><?xpacket begin="﻿" id="W5M0MpCehiHzreSzNTczkc9d"?>
<x:xmpmeta xmlns:x="adobe:ns:meta/" x:xmptk="Adobe XMP Core 5.6-c138 79.159824, 2016/09/14-01:09:01        ">
   <rdf:RDF xmlns:rdf="http://www.w3.org/1999/02/22-rdf-syntax-ns#">
      <rdf:Description rdf:about=""/>
   </rdf:RDF>
</x:xmpmeta>
                                                                                                    
                                                                                                    
                                                                                                    
                                                                                                    
                                                                                                    
                                                                                                    
                                                                                                    
                                                                                                    
                                                                                                    
                                                                                                    
                                                                                                    
                                                                                                    
                                                                                                    
                                                                                                    
                                                                                                    
                                                                                                    
                                                                                                    
                                                                                                    
                                                                                                    
                                                                                                    
                           
<?xpacket end="w"?></metadata>
<defs>
    <style>
      .cls-1 {
        fill: #24f3ff;
        fill-rule: evenodd;
      }
    </style>
  </defs>
  <path class="cls-1" d="M121.791,1730.4a9.042,9.042,0,0,1,4.333-7.6,9.342,9.342,0,0,0-7.337-3.95c-3.086-.32-6.081,1.84-7.651,1.84-1.6,0-4.026-1.81-6.634-1.76a9.791,9.791,0,0,0-8.223,5c-3.556,6.13-.9,15.14,2.5,20.09,1.7,2.43,3.7,5.14,6.3,5.05,2.551-.11,3.5-1.62,6.579-1.62,3.049,0,3.943,1.62,6.6,1.55,2.735-.04,4.458-2.43,6.1-4.88a19.849,19.849,0,0,0,2.791-5.67,8.756,8.756,0,0,1-5.367-8.05m-5.02-14.81a8.891,8.891,0,0,0,2.048-6.39,9.153,9.153,0,0,0-5.9,3.04,8.47,8.47,0,0,0-2.1,6.15,7.535,7.535,0,0,0,5.952-2.8m41.951,33.13H155.16l-1.952-6.11h-6.784l-1.859,6.11H141.1l6.723-20.8h4.152Zm-6.1-8.67-1.766-5.43c-0.185-.56-0.539-1.87-1.053-3.92h-0.063c-0.207.88-.538,2.19-0.991,3.92l-1.735,5.43h5.608Zm23.36,0.99a8.447,8.447,0,0,1-2.088,6.04,6.123,6.123,0,0,1-4.641,1.98,4.653,4.653,0,0,1-4.3-2.13v7.87h-3.344v-16.15c0-1.6-.042-3.24-0.125-4.93h2.942l0.188,2.38h0.062a5.961,5.961,0,0,1,9.526-.59,8.265,8.265,0,0,1,1.78,5.53m-3.408.12a6.188,6.188,0,0,0-.992-3.62,3.44,3.44,0,0,0-2.914-1.47,3.491,3.491,0,0,0-2.243.81,3.8,3.8,0,0,0-1.317,2.15,4.354,4.354,0,0,0-.155,1.01v2.51a4.026,4.026,0,0,0,1.007,2.76,3.341,3.341,0,0,0,2.617,1.12,3.42,3.42,0,0,0,2.942-1.45,6.328,6.328,0,0,0,1.055-3.82m20.725-.12a8.463,8.463,0,0,1-2.086,6.04,6.131,6.131,0,0,1-4.644,1.98,4.653,4.653,0,0,1-4.3-2.13v7.87h-3.346v-16.15c0-1.6-.041-3.24-0.122-4.93h2.942l0.186,2.38h0.063a5.961,5.961,0,0,1,9.526-.59,8.27,8.27,0,0,1,1.78,5.53m-3.409.12a6.2,6.2,0,0,0-.993-3.62,3.43,3.43,0,0,0-2.909-1.47,3.5,3.5,0,0,0-2.247.81,3.8,3.8,0,0,0-1.317,2.15,4.429,4.429,0,0,0-.157,1.01v2.51a4.035,4.035,0,0,0,1.007,2.76,3.669,3.669,0,0,0,5.561-.33,6.342,6.342,0,0,0,1.055-3.82m22.771,1.72a5.562,5.562,0,0,1-1.855,4.33,8.26,8.26,0,0,1-5.687,1.81,10,10,0,0,1-5.409-1.29l0.774-2.78a9.3,9.3,0,0,0,4.833,1.3,4.536,4.536,0,0,0,2.942-.85,2.756,2.756,0,0,0,1.054-2.27,2.871,2.871,0,0,0-.867-2.12,7.967,7.967,0,0,0-2.88-1.61q-5.485-2.04-5.485-5.96a5.24,5.24,0,0,1,1.935-4.19,7.681,7.681,0,0,1,5.128-1.64,10.137,10.137,0,0,1,4.739.99l-0.838,2.71a8.407,8.407,0,0,0-4.013-.95,4.073,4.073,0,0,0-2.77.87,2.449,2.449,0,0,0-.838,1.88,2.528,2.528,0,0,0,.961,2.03,10.766,10.766,0,0,0,3.036,1.61,10.215,10.215,0,0,1,3.963,2.53,5.236,5.236,0,0,1,1.277,3.6m11.091-6.66h-3.689v7.28c0,1.86.651,2.78,1.95,2.78a6.16,6.16,0,0,0,1.487-.15l0.093,2.52a7.5,7.5,0,0,1-2.6.37,4.032,4.032,0,0,1-3.1-1.2,5.91,5.91,0,0,1-1.115-4.05v-7.55h-2.194v-2.51h2.194v-2.74l3.286-.99v3.73h3.689v2.51Zm16.6,4.88a8.187,8.187,0,0,1-1.983,5.67,7.063,7.063,0,0,1-5.513,2.29,6.75,6.75,0,0,1-5.283-2.19,7.956,7.956,0,0,1-1.967-5.53,8.124,8.124,0,0,1,2.029-5.7,7.044,7.044,0,0,1,5.468-2.22,6.892,6.892,0,0,1,5.327,2.19,7.857,7.857,0,0,1,1.922,5.49m-3.467.07a6.666,6.666,0,0,0-.9-3.53,3.3,3.3,0,0,0-3.007-1.79,3.345,3.345,0,0,0-3.066,1.79,6.741,6.741,0,0,0-.9,3.59,6.633,6.633,0,0,0,.9,3.54,3.44,3.44,0,0,0,6.048-.02,6.777,6.777,0,0,0,.921-3.58m14.346-4.52a5.92,5.92,0,0,0-1.054-.09,3.158,3.158,0,0,0-2.727,1.33,4.968,4.968,0,0,0-.835,2.96v7.87h-3.346v-10.28c0-1.72-.031-3.3-0.1-4.72h2.913l0.123,2.87H246.3a5.133,5.133,0,0,1,1.672-2.37,4.038,4.038,0,0,1,2.419-.81,6.849,6.849,0,0,1,.837.06Zm14.961,3.86a7.767,7.767,0,0,1-.121,1.51H256.035a4.356,4.356,0,0,0,1.456,3.4,4.97,4.97,0,0,0,3.281,1.05,11.2,11.2,0,0,0,4.059-.71l0.526,2.31a12.586,12.586,0,0,1-5.049.92,7.35,7.35,0,0,1-5.5-2.04,7.582,7.582,0,0,1-1.995-5.51,8.586,8.586,0,0,1,1.859-5.65,6.429,6.429,0,0,1,5.265-2.4,5.624,5.624,0,0,1,4.929,2.4,8.084,8.084,0,0,1,1.326,4.72m-3.19-.87a4.523,4.523,0,0,0-.649-2.56,2.943,2.943,0,0,0-2.666-1.39,3.169,3.169,0,0,0-2.662,1.36,4.976,4.976,0,0,0-.989,2.59H263Zm-111.986-19.16h-1.748l-0.958-3h-3.335l-0.913,3h-1.7l3.3-10.22H147.7Zm-3-4.26-0.867-2.67c-0.094-.27-0.263-0.92-0.518-1.93H146.6c-0.1.44-.264,1.08-0.486,1.93l-0.852,2.67h2.754Zm11.247-3.11-2.8,7.37h-1.6l-2.708-7.37h1.765l1.263,3.9c0.212,0.64.391,1.26,0.533,1.86h0.044a18.994,18.994,0,0,1,.534-1.86l1.245-3.9h1.724Zm7.459,7.37h-1.477l-0.123-.85h-0.045a2.551,2.551,0,0,1-2.159,1.01,2.254,2.254,0,0,1-1.693-.66,2.109,2.109,0,0,1-.576-1.5,2.306,2.306,0,0,1,1.133-2.07,5.96,5.96,0,0,1,3.188-.69v-0.14a1.326,1.326,0,0,0-1.536-1.46,3.505,3.505,0,0,0-1.934.55l-0.333-1.08a4.8,4.8,0,0,1,2.542-.63c1.939,0,2.906,1.02,2.906,3.05v2.71a11.342,11.342,0,0,0,.107,1.76m-1.7-2.53v-1.14c-1.817-.03-2.724.46-2.724,1.48a1.117,1.117,0,0,0,.318.87,1.161,1.161,0,0,0,.8.29,1.654,1.654,0,0,0,1.007-.35,1.353,1.353,0,0,0,.566-0.87Zm6.287-7.04a0.911,0.911,0,0,1-.293.71,1.01,1.01,0,0,1-.745.28,0.964,0.964,0,0,1-.974-0.99,0.909,0.909,0,0,1,.29-0.69,1.054,1.054,0,0,1,1.431,0,0.9,0.9,0,0,1,.291.69m-0.186,9.57h-1.643v-7.37h1.643v7.37Zm4.565,0h-1.642v-10.75h1.642v10.75Zm8.478,0h-1.478l-0.119-.85h-0.042a2.562,2.562,0,0,1-2.164,1.01,2.247,2.247,0,0,1-1.689-.66,2.107,2.107,0,0,1-.579-1.5,2.309,2.309,0,0,1,1.134-2.07,5.962,5.962,0,0,1,3.189-.69v-0.14a1.326,1.326,0,0,0-1.536-1.46,3.485,3.485,0,0,0-1.933.55l-0.336-1.08a4.8,4.8,0,0,1,2.541-.63c1.939,0,2.907,1.02,2.907,3.05v2.71a11.258,11.258,0,0,0,.1,1.76m-1.7-2.53v-1.14c-1.818-.03-2.724.46-2.724,1.48a1.124,1.124,0,0,0,.317.87,1.164,1.164,0,0,0,.8.29,1.655,1.655,0,0,0,1.006-.35,1.362,1.362,0,0,0,.567-0.87Zm11.52-1.26a4.188,4.188,0,0,1-1.032,2.97,2.955,2.955,0,0,1-2.239.98,2.491,2.491,0,0,1-2.329-1.3h-0.03l-0.09,1.14h-1.4c0.038-.6.059-1.26,0.059-1.99v-8.76h1.645v4.46a2.55,2.55,0,0,1,2.373-1.23,2.722,2.722,0,0,1,2.195,1.02,4.091,4.091,0,0,1,.851,2.71m-1.67.06a2.952,2.952,0,0,0-.491-1.76,1.674,1.674,0,0,0-1.447-.74,1.7,1.7,0,0,0-1.094.39,1.885,1.885,0,0,0-.652,1.05,2.068,2.068,0,0,0-.061.51v1.29a1.817,1.817,0,0,0,.506,1.3,1.8,1.8,0,0,0,2.72-.15,3.092,3.092,0,0,0,.519-1.89m5.751,3.73h-1.645v-10.75h1.645v10.75Zm9.011-4.04a4.154,4.154,0,0,1-.062.75h-4.932a2.117,2.117,0,0,0,.713,1.66,2.426,2.426,0,0,0,1.615.52,5.3,5.3,0,0,0,1.992-.35l0.256,1.14a6.253,6.253,0,0,1-2.479.45,3.608,3.608,0,0,1-2.7-1,3.739,3.739,0,0,1-.98-2.71,4.17,4.17,0,0,1,.915-2.77,3.146,3.146,0,0,1,2.585-1.18,2.757,2.757,0,0,1,2.421,1.18,3.926,3.926,0,0,1,.659,2.31m-1.569-.42a2.267,2.267,0,0,0-.319-1.26,1.448,1.448,0,0,0-1.31-.68,1.562,1.562,0,0,0-1.312.67,2.465,2.465,0,0,0-.484,1.27H205.5Zm15.159,0.71a4.021,4.021,0,0,1-.975,2.79,3.479,3.479,0,0,1-2.709,1.12,3.3,3.3,0,0,1-2.595-1.07,3.921,3.921,0,0,1-.966-2.72,3.984,3.984,0,0,1,1-2.8,3.8,3.8,0,0,1,5.305-.02,3.894,3.894,0,0,1,.941,2.7m-1.706.04a3.318,3.318,0,0,0-.441-1.74,1.626,1.626,0,0,0-1.473-.87,1.65,1.65,0,0,0-1.507.87,3.351,3.351,0,0,0-.443,1.77,3.279,3.279,0,0,0,.443,1.74,1.675,1.675,0,0,0,1.492.88,1.644,1.644,0,0,0,1.471-.89,3.279,3.279,0,0,0,.458-1.76m10.565,3.71h-1.643v-4.23c0-1.31-.5-1.96-1.493-1.96a1.479,1.479,0,0,0-1.186.54,1.878,1.878,0,0,0-.456,1.26v4.39H223.1v-5.26c0-.65-0.02-1.36-0.06-2.11h1.446l0.076,1.13h0.046a2.333,2.333,0,0,1,.852-0.87,2.734,2.734,0,0,1,1.489-.41,2.386,2.386,0,0,1,1.723.66,3.237,3.237,0,0,1,.852,2.44v4.42Zm10.758-6.14h-1.808v3.58c0,0.9.316,1.36,0.957,1.36a2.9,2.9,0,0,0,.727-0.08l0.048,1.25a3.758,3.758,0,0,1-1.278.18,1.983,1.983,0,0,1-1.519-.59,2.908,2.908,0,0,1-.551-1.99v-3.71h-1.081v-1.23h1.081v-1.35l1.612-.48v1.83h1.812v1.23Zm8.69,6.14h-1.644v-4.2c0-1.33-.5-1.99-1.49-1.99a1.567,1.567,0,0,0-1.569,1.15,2.06,2.06,0,0,0-.077.59v4.45h-1.643v-10.75h1.643v4.43h0.031a2.5,2.5,0,0,1,2.221-1.2,2.282,2.282,0,0,1,1.693.67,3.347,3.347,0,0,1,.835,2.47v4.38Zm8.465-4.04a3.752,3.752,0,0,1-.061.75h-4.93a2.11,2.11,0,0,0,.713,1.66,2.415,2.415,0,0,0,1.612.52,5.267,5.267,0,0,0,1.99-.35l0.26,1.14a6.27,6.27,0,0,1-2.483.45,3.609,3.609,0,0,1-2.7-1,3.74,3.74,0,0,1-.981-2.71,4.185,4.185,0,0,1,.914-2.77,3.146,3.146,0,0,1,2.584-1.18,2.753,2.753,0,0,1,2.423,1.18,3.913,3.913,0,0,1,.661,2.31m-1.569-.42a2.266,2.266,0,0,0-.317-1.26,1.449,1.449,0,0,0-1.31-.68,1.555,1.555,0,0,0-1.31.67,2.423,2.423,0,0,0-.485,1.27h3.422Z" transform="translate(-94.594 -1709.19)"/>
</svg>
