<svg xmlns="http://www.w3.org/2000/svg" width="2" height="114" viewBox="0 0 2 114">
  <metadata><?xpacket begin="﻿" id="W5M0MpCehiHzreSzNTczkc9d"?>
<x:xmpmeta xmlns:x="adobe:ns:meta/" x:xmptk="Adobe XMP Core 5.6-c138 79.159824, 2016/09/14-01:09:01        ">
   <rdf:RDF xmlns:rdf="http://www.w3.org/1999/02/22-rdf-syntax-ns#">
      <rdf:Description rdf:about=""/>
   </rdf:RDF>
</x:xmpmeta>
                                                                                                    
                                                                                                    
                                                                                                    
                                                                                                    
                                                                                                    
                                                                                                    
                                                                                                    
                                                                                                    
                                                                                                    
                                                                                                    
                                                                                                    
                                                                                                    
                                                                                                    
                                                                                                    
                                                                                                    
                                                                                                    
                                                                                                    
                                                                                                    
                                                                                                    
                                                                                                    
                           
<?xpacket end="w"?></metadata>
<defs>
    <style>
      .cls-1 {
        fill: #282d3e;
        fill-rule: evenodd;
      }
    </style>
  </defs>
  <path id="Shape_909_copy_8" data-name="Shape 909 copy 8" class="cls-1" d="M18,908.5H16v-4h2v4Zm0,10H16v-4h2v4Zm0,10H16v-4h2v4Zm0,10H16v-4h2v4Zm0,10H16v-4h2v4Zm0,10H16v-4h2v4Zm0,10H16v-4h2v4Zm0,10H16v-4h2v4Zm0,10H16v-4h2v4Zm0,10H16v-4h2v4Zm0,10H16v-4h2v4Zm0,10H16v-4h2v4Z" transform="translate(-16 -904.5)"/>
</svg>
