<svg xmlns="http://www.w3.org/2000/svg" width="180" height="45.59" viewBox="0 0 180 45.59">
  <metadata><?xpacket begin="﻿" id="W5M0MpCehiHzreSzNTczkc9d"?>
<x:xmpmeta xmlns:x="adobe:ns:meta/" x:xmptk="Adobe XMP Core 5.6-c138 79.159824, 2016/09/14-01:09:01        ">
   <rdf:RDF xmlns:rdf="http://www.w3.org/1999/02/22-rdf-syntax-ns#">
      <rdf:Description rdf:about=""/>
   </rdf:RDF>
</x:xmpmeta>
                                                                                                    
                                                                                                    
                                                                                                    
                                                                                                    
                                                                                                    
                                                                                                    
                                                                                                    
                                                                                                    
                                                                                                    
                                                                                                    
                                                                                                    
                                                                                                    
                                                                                                    
                                                                                                    
                                                                                                    
                                                                                                    
                                                                                                    
                                                                                                    
                                                                                                    
                                                                                                    
                           
<?xpacket end="w"?></metadata>
<defs>
    <style>
      .cls-1 {
        fill: #a8aec4;
        fill-rule: evenodd;
      }
    </style>
  </defs>
  <path class="cls-1" d="M549.92,1725.93l-9.2-5.32-17.75-10.26c-0.985-.57-1.967-0.23-1.967.97v41.81c0,0.89.7,1.27,1.558,0.78s18.159-10.5,18.159-10.5l9.2-5.32,8.846-5.11c1.038-.6.938-1.43,0.062-1.9S549.92,1725.93,549.92,1725.93ZM521,1709.38v45.27l22.8-22.64Zm28.92,16.55-9.2-5.32-17.75-10.26c-0.985-.57-1.967-0.23-1.967.97v41.81c0,0.89.7,1.27,1.558,0.78s18.159-10.5,18.159-10.5l9.2-5.32,8.846-5.11c1.038-.6.938-1.43,0.062-1.9S549.92,1725.93,549.92,1725.93Zm0,0-9.2-5.32L521,1709.21v0.17l22.8,22.63Zm0,0-9.2-5.32-17.75-10.26c-0.985-.57-1.967-0.23-1.967.97v41.81c0,0.89.7,1.27,1.558,0.78s18.159-10.5,18.159-10.5l9.2-5.32,8.846-5.11c1.038-.6.938-1.43,0.062-1.9S549.92,1725.93,549.92,1725.93ZM521,1754.65v0.16l19.717-11.4,9.2-5.32-6.122-6.08Zm28.92-28.72-9.2-5.32-17.75-10.26c-0.985-.57-1.967-0.23-1.967.97v41.81c0,0.89.7,1.27,1.558,0.78s18.159-10.5,18.159-10.5l9.2-5.32,8.846-5.11c1.038-.6.938-1.43,0.062-1.9S549.92,1725.93,549.92,1725.93Zm0,0-6.123,6.08,6.122,6.08,10.517-6.08Zm114.6,16.8a5.78,5.78,0,0,1-2.345-.47,4.417,4.417,0,0,1-1.782-1.46h-0.144a17.735,17.735,0,0,1,.144,2.19v5.41H658.4v-19.07h1.619l0.275,1.8h0.1a4.626,4.626,0,0,1,1.788-1.56,5.426,5.426,0,0,1,2.338-.48,4.837,4.837,0,0,1,4.037,1.79,9.542,9.542,0,0,1-.023,10.06A4.881,4.881,0,0,1,664.519,1742.73Zm-0.288-11.95a3.511,3.511,0,0,0-2.915,1.12,5.736,5.736,0,0,0-.924,3.55v0.45a6.6,6.6,0,0,0,.924,3.97,3.5,3.5,0,0,0,2.963,1.19,3.082,3.082,0,0,0,2.67-1.38,6.563,6.563,0,0,0,.965-3.81,6.28,6.28,0,0,0-.965-3.77A3.172,3.172,0,0,0,664.231,1730.78Zm10.357,11.71H672.6V1723.8h1.991v18.69Zm11.448,0-0.4-1.87h-0.1a5.537,5.537,0,0,1-1.961,1.67,5.847,5.847,0,0,1-2.441.44,4.355,4.355,0,0,1-3.065-1.01,3.664,3.664,0,0,1-1.11-2.87c0-2.65,2.124-4.05,6.37-4.18l2.232-.07v-0.82a3.317,3.317,0,0,0-.666-2.28,2.711,2.711,0,0,0-2.129-.74,8.561,8.561,0,0,0-3.719,1.01l-0.612-1.53a9.439,9.439,0,0,1,2.13-.83,9.212,9.212,0,0,1,2.321-.3,4.987,4.987,0,0,1,3.484,1.05,4.348,4.348,0,0,1,1.134,3.35v8.98h-1.476Zm-4.5-1.4a4.044,4.044,0,0,0,2.921-1.02,3.792,3.792,0,0,0,1.061-2.86v-1.19l-1.992.08a7.244,7.244,0,0,0-3.425.74,2.241,2.241,0,0,0-1.049,2.04,2.035,2.035,0,0,0,.654,1.64A2.694,2.694,0,0,0,681.538,1741.09Zm7.129-11.76H690.8l2.88,7.51a28.755,28.755,0,0,1,1.176,3.71h0.1q0.156-.615.653-2.1t3.257-9.12H701l-5.651,14.99a7.452,7.452,0,0,1-1.962,3.15,4.167,4.167,0,0,1-2.752.93,8.379,8.379,0,0,1-1.8-.2v-1.6a6.676,6.676,0,0,0,1.476.15,3.043,3.043,0,0,0,2.927-2.31l0.732-1.87Zm-61.036,1.22a4.649,4.649,0,0,1,1.952,3.72c0,2.04-1.155,3-2.31,3.91a1.936,1.936,0,0,0-.77,1.35,1.514,1.514,0,0,0,.716,1.18l0.99,0.77c1.21,1.02,2.309,1.96,2.309,3.86,0,2.59-2.5,5.2-7.232,5.2-3.988,0-5.912-1.9-5.912-3.94a3.971,3.971,0,0,1,2.118-3.36,11.842,11.842,0,0,1,5.252-1.26,2.9,2.9,0,0,1-.825-1.87,2.5,2.5,0,0,1,.275-1.08c-0.3.03-.606,0.06-0.881,0.06a4.354,4.354,0,0,1-4.564-4.33,4.97,4.97,0,0,1,1.759-3.69,7.508,7.508,0,0,1,4.924-1.51H631.1l-1.76.99h-1.705Zm-1.953,12.23a4.086,4.086,0,0,0-.631-0.03,11.226,11.226,0,0,0-2.888.44,3.1,3.1,0,0,0-2.366,2.84c0,1.95,1.9,3.36,4.841,3.36,2.639,0,4.043-1.27,4.043-2.98C628.677,1745.01,627.769,1744.27,625.678,1742.78Zm0.8-5.24a2.775,2.775,0,0,0,.686-2.01c0-1.98-1.182-5.06-3.464-5.06a2.573,2.573,0,0,0-1.925.91,3.178,3.178,0,0,0-.606,2.03c0,1.85,1.073,4.91,3.439,4.91A2.776,2.776,0,0,0,626.476,1737.54Zm-16.157,4.8a6.483,6.483,0,0,1-6.7-6.49,6.808,6.808,0,0,1,7.111-6.68,6.423,6.423,0,0,1,6.56,6.49A6.713,6.713,0,0,1,610.319,1742.34Zm3.431-2.23a4.975,4.975,0,0,0,.825-3.05c0-2.42-1.153-7.04-4.558-7.04a3.816,3.816,0,0,0-2.47.94,4.156,4.156,0,0,0-1.264,3.35c0,2.72,1.346,7.2,4.668,7.2A3.5,3.5,0,0,0,613.75,1740.11Zm-18.312,2.23a6.484,6.484,0,0,1-6.7-6.49,6.809,6.809,0,0,1,7.111-6.68,6.422,6.422,0,0,1,6.561,6.49A6.713,6.713,0,0,1,595.438,1742.34Zm3.432-2.23a4.98,4.98,0,0,0,.824-3.05c0-2.42-1.154-7.04-4.558-7.04a3.817,3.817,0,0,0-2.471.94,4.157,4.157,0,0,0-1.262,3.35c0,2.72,1.344,7.2,4.668,7.2A3.5,3.5,0,0,0,598.87,1740.11Zm-12.228,1.8-3.948.91a29.152,29.152,0,0,1-4.554.47c-7.619,0-10.517-5.61-10.517-10.01,0-5.36,4.113-10.33,11.152-10.33a15.866,15.866,0,0,1,4.222.58,10.681,10.681,0,0,1,3.644,1.71l-2.292,2.18-0.965.22,0.689-1.1a7.888,7.888,0,0,0-5.906-2.6c-4.362,0-7.647,3.32-7.647,8.15,0,5.2,3.754,10.09,9.771,10.09a8.254,8.254,0,0,0,3.506-.69v-4.45l-4.168.22,2.208-1.19h5.852l-0.717.69a0.669,0.669,0,0,0-.277.44c-0.028.25-.054,1.06-0.054,1.33v3.38h0Zm49.714-.8c-0.912-.08-1.1-0.25-1.1-1.33v-15.64c0-.06.009-0.12,0.014-0.18a1.761,1.761,0,0,1,1.244-1.63h-3.949l-2.07,1h2.11v0.01l0-.01v17.06c0,0.55-.109.64-0.744,1.47h4.886l1.021-.61C637.3,1741.19,636.826,1741.17,636.356,1741.11Zm11.232,0.25c-0.3.17-.6,0.36-0.9,0.5a6.4,6.4,0,0,1-2.662.52,5.878,5.878,0,0,1-3.646-1.07,7.112,7.112,0,0,1-2.794-5.79,6.212,6.212,0,0,1,6.277-6.34,5.258,5.258,0,0,1,2.825.77,4.531,4.531,0,0,1,1.916,2.71l-6.44,2.61-2.111.17c0.684,3.48,3.041,5.51,5.646,5.51a7.026,7.026,0,0,0,3.344-.96Zm-2.576-8.18a0.862,0.862,0,0,0,.794-0.74,2.727,2.727,0,0,0-2.715-2.36c-1.1,0-3.152.85-3.152,3.82,0,0.46.055,0.96,0.083,1.45Zm5.221-3.82v1.82h-0.22v-1.82h-0.6v-0.18h1.416v0.18h-0.6Zm2.466,1.82v-1.83h-0.01l-0.557,1.83H651.96l-0.562-1.83h-0.007v1.83h-0.2v-2h0.342l0.508,1.61h0.007l0.5-1.61H652.9v2h-0.2Zm-79.593-13.62h-1.372a9.03,9.03,0,0,0-.39-1.6h-1.981a8.455,8.455,0,0,0-.4,1.6h-1.29c0-.11.334-1.02,1-2.74a21.917,21.917,0,0,0,1-2.84h1.62a24.237,24.237,0,0,0,.907,2.8A24.992,24.992,0,0,1,573.106,1717.56Zm-1.981-2.42a24.615,24.615,0,0,1-.733-2.4h-0.068q0,0.165-.759,2.4h1.56Zm7.508,2.42h-1.059a10.862,10.862,0,0,0-1.179-1.85,10.314,10.314,0,0,1-1.4-2.43h-0.069a15,15,0,0,1,.107,1.7q0,1.065.06,2.58h-1.054c0.042-.88.064-1.86,0.064-2.92,0-1.04-.022-1.93-0.064-2.66h1.273a8.162,8.162,0,0,0,1.058,1.81,10.783,10.783,0,0,1,1.294,2.29h0.065a16.153,16.153,0,0,1-.1-1.72c0-.77-0.02-1.57-0.06-2.38h1.072c-0.041.71-.06,1.59-0.06,2.66S578.592,1716.69,578.633,1717.56Zm6.212-2.98a3.14,3.14,0,0,1-.78,2.12,2.715,2.715,0,0,1-2.186.91c-0.423,0-1.006-.01-1.749-0.05,0.037-.86.056-1.84,0.056-2.92q0-1.56-.056-2.67h0.75c0.123,0,.306,0,0.549-0.01s0.4-.01.475-0.01a2.9,2.9,0,0,1,2.244.77A2.683,2.683,0,0,1,584.845,1714.58Zm-1.17.18a2.079,2.079,0,0,0-.48-1.39,1.837,1.837,0,0,0-1.466-.56,3.722,3.722,0,0,0-.506.04c0.028,0.57.043,1.17,0.043,1.79,0,0.68.014,1.36,0.042,2.03a2.645,2.645,0,0,0,.557.06,1.62,1.62,0,0,0,1.365-.57A2.216,2.216,0,0,0,583.675,1714.76Zm6.9,2.8H589.3a8.466,8.466,0,0,0-.762-1.87,1,1,0,0,0-.858-0.36c-0.166,0-.324,0-0.475.01q0,1.1.038,2.22h-1.191c0.037-.86.056-1.84,0.056-2.92,0-1.04-.019-1.93-0.056-2.66H586.8c0.085,0,.264-0.01.537-0.02s0.525-.01.757-0.01q1.967,0,1.967,1.35a1.513,1.513,0,0,1-1.122,1.49v0.06a1.349,1.349,0,0,1,.758.68A15.071,15.071,0,0,1,590.573,1717.56Zm-1.607-3.95a0.881,0.881,0,0,0-1.1-.85,3.763,3.763,0,0,0-.712.06c0.032,0.44.047,1.02,0.047,1.73,0.158,0.01.29,0.01,0.4,0.01C588.511,1714.56,588.966,1714.25,588.966,1713.61Zm7.751,1.06a3.087,3.087,0,0,1-.806,2.18,2.608,2.608,0,0,1-1.993.87,2.521,2.521,0,0,1-1.894-.8,2.792,2.792,0,0,1-.763-2.02,3.1,3.1,0,0,1,.806-2.19,2.632,2.632,0,0,1,1.993-.86,2.515,2.515,0,0,1,1.894.79A2.8,2.8,0,0,1,596.717,1714.67Zm-1.183.12a2.194,2.194,0,0,0-.458-1.45,1.391,1.391,0,0,0-1.132-.56,1.318,1.318,0,0,0-1.063.56,2.241,2.241,0,0,0-.437,1.42,2.19,2.19,0,0,0,.46,1.45,1.394,1.394,0,0,0,1.13.56,1.291,1.291,0,0,0,1.063-.56A2.261,2.261,0,0,0,595.534,1714.79Zm3.607,2.77h-1.213c0.037-.88.056-1.86,0.056-2.92,0-1.04-.019-1.93-0.056-2.66h1.213c-0.037.72-.056,1.6-0.056,2.66C599.085,1715.72,599.1,1716.69,599.141,1717.56Zm6.212-2.98a3.14,3.14,0,0,1-.78,2.12,2.714,2.714,0,0,1-2.186.91c-0.423,0-1.006-.01-1.749-0.05,0.037-.86.056-1.84,0.056-2.92q0-1.56-.056-2.67h0.75c0.123,0,.306,0,0.549-0.01s0.4-.01.475-0.01a2.9,2.9,0,0,1,2.244.77A2.678,2.678,0,0,1,605.353,1714.58Zm-1.17.18a2.079,2.079,0,0,0-.48-1.39,1.837,1.837,0,0,0-1.466-.56,3.722,3.722,0,0,0-.506.04c0.029,0.57.043,1.17,0.043,1.79,0,0.68.015,1.36,0.043,2.03a2.631,2.631,0,0,0,.557.06,1.622,1.622,0,0,0,1.365-.57A2.221,2.221,0,0,0,604.183,1714.76Zm9.412,2.8h-1.372a8.978,8.978,0,0,0-.391-1.6h-1.98a8.455,8.455,0,0,0-.4,1.6H608.16c0-.11.333-1.02,1-2.74a21.917,21.917,0,0,0,1-2.84h1.621a24.335,24.335,0,0,0,.906,2.8A24.992,24.992,0,0,1,613.6,1717.56Zm-1.98-2.42a24.476,24.476,0,0,1-.734-2.4h-0.068q0,0.165-.758,2.4h1.56Zm6.979-1.7a1.663,1.663,0,0,1-.76,1.51,3.353,3.353,0,0,1-1.867.49,2.077,2.077,0,0,1-.287-0.01q0,0.81.047,2.13h-1.2c0.037-.82.056-1.8,0.056-2.92,0-1.03-.019-1.92-0.056-2.66h0.746c0.106,0,.308-0.01.608-0.02s0.56-.01.78-0.01a2.419,2.419,0,0,1,1.376.37A1.255,1.255,0,0,1,618.594,1713.44Zm-1.105.23c0-.61-0.406-0.91-1.218-0.91a3.672,3.672,0,0,0-.642.06c0.031,0.54.047,1.15,0.047,1.84,0.071,0,.154.01,0.248,0.01C616.967,1714.67,617.489,1714.34,617.489,1713.67Zm6.246-.23a1.665,1.665,0,0,1-.76,1.51,3.353,3.353,0,0,1-1.867.49,2.1,2.1,0,0,1-.288-0.01q0,0.81.048,2.13h-1.205c0.037-.82.056-1.8,0.056-2.92,0-1.03-.019-1.92-0.056-2.66h0.746c0.105,0,.308-0.01.608-0.02s0.56-.01.78-0.01a2.419,2.419,0,0,1,1.376.37A1.255,1.255,0,0,1,623.735,1713.44Zm-1.105.23c0-.61-0.406-0.91-1.218-0.91a3.692,3.692,0,0,0-.643.06c0.032,0.54.047,1.15,0.047,1.84,0.072,0,.155.01,0.249,0.01C622.108,1714.67,622.63,1714.34,622.63,1713.67Zm9.51,1a3.087,3.087,0,0,1-.806,2.18,2.608,2.608,0,0,1-1.993.87,2.522,2.522,0,0,1-1.894-.8,2.792,2.792,0,0,1-.763-2.02,3.1,3.1,0,0,1,.806-2.19,2.632,2.632,0,0,1,1.993-.86,2.514,2.514,0,0,1,1.894.79A2.8,2.8,0,0,1,632.14,1714.67Zm-1.183.12a2.2,2.2,0,0,0-.458-1.45,1.392,1.392,0,0,0-1.132-.56,1.317,1.317,0,0,0-1.063.56,2.241,2.241,0,0,0-.437,1.42,2.185,2.185,0,0,0,.461,1.45,1.391,1.391,0,0,0,1.129.56,1.292,1.292,0,0,0,1.063-.56A2.255,2.255,0,0,0,630.957,1714.79Zm6.993,2.77h-1.059a10.862,10.862,0,0,0-1.179-1.85,10.314,10.314,0,0,1-1.4-2.43h-0.069a15,15,0,0,1,.107,1.7q0,1.065.06,2.58h-1.054c0.042-.88.064-1.86,0.064-2.92,0-1.04-.022-1.93-0.064-2.66h1.273a8.21,8.21,0,0,0,1.058,1.81,10.783,10.783,0,0,1,1.294,2.29h0.065a16.153,16.153,0,0,1-.1-1.72c0-.77-0.02-1.57-0.06-2.38h1.072c-0.041.71-.06,1.59-0.06,2.66S637.91,1716.69,637.95,1717.56Z" transform="translate(-521 -1709.22)"/>
</svg>
