<?xml version="1.0" encoding="utf-8"?>
<!-- Generator: Adobe Illustrator 19.1.0, SVG Export Plug-In . SVG Version: 6.00 Build 0)  -->
<svg version="1.1" id="Layer_1" xmlns="http://www.w3.org/2000/svg" xmlns:xlink="http://www.w3.org/1999/xlink" x="0px" y="0px"
	 viewBox="0 0 64 64" style="enable-background:new 0 0 64 64;" xml:space="preserve">
<style type="text/css">
	.st0{fill:#2A2E6F;}
	.st1{fill:#FFFFFF;}
	.st2{fill:#E41025;}
	.st3{fill:#D90D32;}
	.st4{fill:#BD1633;}
	.st5{fill:#3C9447;}
	.st6{fill:none;}
	.st7{fill:#2D3D91;}
	.st8{fill:#F5D229;}
	.st9{fill:#2C694A;}
	.st10{fill:#CD1D24;}
	.st11{fill:#F7DE28;}
	.st12{fill:#3C9142;}
	.st13{fill:#EEC226;}
	.st14{fill:#2E2767;}
	.st15{fill:#010202;}
	.st16{fill:#D90E21;}
	.st17{fill:#CC1420;}
	.st18{fill:#293560;}
	.st19{fill:#F5F4F4;}
	.st20{fill:#333F92;}
	.st21{fill:#C71621;}
	.st22{fill:#E0081F;}
	.st23{fill:#F5D929;}
	.st24{fill:#AD191C;}
	.st25{fill:#B6182C;}
	.st26{fill:#F5C226;}
	.st27{fill:#BD1636;}
	.st28{fill:#29316F;}
	.st29{fill:#D91840;}
	.st30{fill:#438FC2;}
	.st31{fill:#D60C42;}
	.st32{fill:#47AE69;}
	.st33{fill:#409C36;}
	.st34{clip-path:url(#SVGID_2_);}
</style>
<g>
	<rect x="4.7" y="43.4" class="st6" width="54.7" height="0"/>
	<path class="st15" d="M32,2.4c-13.1,0-24.2,8.5-28.1,20.2h56.2C56.2,10.9,45.1,2.4,32,2.4z"/>
	<path class="st22" d="M2.4,32c0,4,0.8,7.9,2.3,11.4h54.7c1.5-3.5,2.3-7.4,2.3-11.4c0-3.3-0.5-6.4-1.5-9.4H3.9
		C2.9,25.6,2.4,28.7,2.4,32z"/>
	<path class="st23" d="M32,61.6c12.3,0,22.9-7.5,27.3-18.2H4.7C9.1,54.1,19.7,61.6,32,61.6z"/>
</g>
<g>
	<g>
		<path class="st1" d="M32,62C15.5,62,2,48.5,2,32S15.5,2,32,2s30,13.5,30,30S48.5,62,32,62z M32,2.8C15.9,2.8,2.8,15.9,2.8,32
			S15.9,61.2,32,61.2S61.2,48.1,61.2,32S48.1,2.8,32,2.8z"/>
	</g>
</g>
</svg>
