<?xml version="1.0" encoding="UTF-8"?><!DOCTYPE svg PUBLIC "-//W3C//DTD SVG 1.1//EN" "http://www.w3.org/Graphics/SVG/1.1/DTD/svg11.dtd"><svg xmlns="http://www.w3.org/2000/svg"><defs>
        <style>
            .cls-1{fill:#fff;fill-rule:evenodd}
        </style>
    
        <style>
            .cls-1{fill:#e3704e;fill-rule:evenodd}
        </style>
    
        <style>
            .cls-1{fill:#fff;fill-rule:evenodd}
        </style>
    
        <style>
            .cls-1{fill:#fff;fill-rule:evenodd}
        </style>
    
        <style>
            .cls-1{fill:#fab600;fill-opacity:0;stroke-linejoin:round;stroke-width:2px;fill-rule:evenodd;stroke:url(#linear-gradient)}
        </style>
        <linearGradient id="linear-gradient" x1="81" y1="784" x2="81" y2="694" gradientUnits="userSpaceOnUse">
            <stop offset="0" stop-color="#edf4ff"/>
            <stop offset=".355" stop-color="#edf4ff"/>
            <stop offset="1" stop-color="#13131d" stop-opacity="0"/>
        </linearGradient>
    
        <style>
            .cls-1{fill:#fff;fill-rule:evenodd}
        </style>
    
        <style>
            .cls-1{fill:#fff;fill-rule:evenodd}
        </style>
    
        <style>
            .cls-1{fill:#fff;fill-rule:evenodd}
        </style>
    
        <style>
            .cls-1{fill:#5373c5;fill-rule:evenodd}
        </style>
    
        <style>
            .cls-1{fill:#fff;fill-rule:evenodd}
        </style>
    
        <style>
            .cls-1{fill:#5373c5;fill-rule:evenodd}
        </style>
    </defs><symbol id="icon-arrow" viewBox="0 0 19 27">
    
    <path id="Forma_1" data-name="Forma 1" class="cls-1" d="M1652.99 74.009l-1.11-1.047-7.64 9.207V58.013h-1.48v24.156l-7.64-9.207-1.11 1.047 9.11 10.978h.76z" transform="translate(-1634 -58)"/>
</symbol><symbol id="icon-balance" viewBox="0 0 23.97 23.875">
    
    <path class="cls-1" d="M19.79 2.875A12.033 12.033 0 0 0 2.88 4.181a11.928 11.928 0 0 0 7.28 19.551 12.02 12.02 0 0 0 10.94-4.034 11.9 11.9 0 0 0-1.31-16.823zM22.11 15.4l-3.67-1.257a6.782 6.782 0 0 0 .01-4.4l3.66-1.253a10.743 10.743 0 0 1 0 6.914zm.2-7.017zm-2.26-3.428l-2.91 2.522a8.2 8.2 0 0 0-.71-.7 6.827 6.827 0 0 0-3.13-1.5l.74-3.762a10.69 10.69 0 0 1 6.01 3.444zM8.35 1.938a10.577 10.577 0 0 1 1.59-.434l.74 3.77a6.772 6.772 0 0 0-3.83 2.2L3.93 4.947a10.633 10.633 0 0 1 4.42-3.005zm-6.48 6.54l3.66 1.257a6.849 6.849 0 0 0 0 4.4L1.87 15.39a10.741 10.741 0 0 1 0-6.909zm2.05 10.449L6.84 16.4a6.978 6.978 0 0 0 .71.7 6.826 6.826 0 0 0 3.13 1.5l-.74 3.782a10.623 10.623 0 0 1-4.9-2.361 9.952 9.952 0 0 1-1.12-1.09zm11.71 3.024a10.775 10.775 0 0 1-1.59.435l-.74-3.782a6.771 6.771 0 0 0 3.83-2.2l2.92 2.528a10.648 10.648 0 0 1-4.42 3.023zM7.55 3.675a.644.644 0 1 1-.65.644.646.646 0 0 1 .65-.644zm-4.42 7.637a.644.644 0 1 1-.64.644.647.647 0 0 1 .64-.646zm4.44 7.625a.644.644 0 1 1-.65.644.646.646 0 0 1 .65-.646zm8.86-.012a.644.644 0 1 1-.65.644.644.644 0 0 1 .65-.646zm4.41-7.637a.644.644 0 1 1-.64.644.646.646 0 0 1 .64-.645zm-4.43-7.625a.644.644 0 1 1-.65.644.644.644 0 0 1 .65-.646z"/>
</symbol><symbol id="icon-cup" viewBox="0 0 25 25">
    
    <path id="Forma_1" data-name="Forma 1" class="cls-1" d="M767.753 60.247H764V59h-15v1.25h-3.751A1.181 1.181 0 0 0 744 61.5v3a5.672 5.672 0 0 0 5 5.626v.124a7.52 7.52 0 0 0 5.877 7.377L754 80.252h-2.875a1.2 1.2 0 0 0-1.126.875L749 84h15l-1-2.876a1.2 1.2 0 0 0-1.126-.875H759l-.876-2.626A7.52 7.52 0 0 0 764 70.25v-.125a5.671 5.671 0 0 0 5-5.626v-3a1.181 1.181 0 0 0-1.247-1.252zM749 67.624a3.339 3.339 0 0 1-2.5-3.126v-1.75h2.5v4.876zm10 3.876l-2.5-1.375L754 71.5l.626-2.5-1.876-2.5h2.626L756.5 64l1.125 2.5h2.626l-1.875 2.5zm7.5-7a3.226 3.226 0 0 1-2.5 3.126v-4.878h2.5V64.5z" transform="translate(-744 -59)"/>
</symbol><symbol id="icon-gift" viewBox="0 0 27 25">
    
    <path id="Forma_1" data-name="Forma 1" class="cls-1" d="M425.685 72.311v10.018A1.681 1.681 0 0 0 427.373 84h8.439V72.311h-10.127zm23.63-6.679h-5.34a6.583 6.583 0 0 0 .942-.746 3.464 3.464 0 0 0 0-4.913 3.6 3.6 0 0 0-4.951 0c-.733.726-2.674 3.684-2.405 5.659h-.122c.267-1.975-1.674-4.933-2.405-5.659a3.6 3.6 0 0 0-4.951 0 3.468 3.468 0 0 0 0 4.913 6.655 6.655 0 0 0 .943.746h-5.34A1.682 1.682 0 0 0 424 67.3v2.5a.84.84 0 0 0 .844.835h10.971V67.3h3.376v3.34h10.971a.84.84 0 0 0 .838-.834V67.3a1.681 1.681 0 0 0-1.685-1.668zm-13.6-.055a.558.558 0 0 1-.312.055 8.34 8.34 0 0 1-4.12-1.924 1.808 1.808 0 0 1 2.557-2.558c1.135 1.132 2.266 4.024 1.872 4.427zm3.886.055a.535.535 0 0 1-.31-.055c-.394-.4.737-3.294 1.875-4.427a1.855 1.855 0 0 1 2.557 0 1.8 1.8 0 0 1 0 2.558 8.339 8.339 0 0 1-4.123 1.924zm-.41 6.679V84h8.439a1.68 1.68 0 0 0 1.688-1.67V72.311h-10.13z" transform="translate(-424 -59)"/>
</symbol><symbol id="icon-penta" viewBox="0 0 90 96">
    
    <path id="Shape_18_copy_4" data-name="Shape 18 copy 4" class="cls-1" d="M123 726.979q-.21 12.027 0 24.053t-10.45 17.859q-10.658 5.832-21.1 12.026t-20.894 0q-10.447-6.193-21.1-12.026T39 751.032q.211-12.027 0-24.053t10.447-17.859q10.658-5.834 21.1-12.026t20.894 0q10.447 6.193 21.1 12.026T123 726.979z" transform="translate(-36 -691)"/>
</symbol><symbol id="icon-play" viewBox="0 0 21 25">
    
    <path id="Forma_1" data-name="Forma 1" class="cls-1" d="M1145.36 70.431l-17.98-11.05c-1.31-.853-2.38-.225-2.38 1.394v21.45c0 1.619 1.07 2.246 2.38 1.394l17.98-11.05a1.213 1.213 0 0 0 0-2.138z" transform="translate(-1125 -59)"/>
</symbol><symbol id="icon-plus" viewBox="0 0 26 26">
    
    <path id="Icon_-_Plus" data-name="Icon - Plus" class="cls-1" d="M3118 68.762h-11.77V57h-2.47v11.762h-11.77v2.476h11.77V83h2.47V71.238H3118v-2.476z" transform="translate(-3092 -57)"/>
</symbol><symbol id="icon-send" viewBox="0 0 32 27">
    
    <path id="Icon_-_Send" data-name="Icon - Send" class="cls-1" d="M3124.01 1763.01l31.98-13.51-31.98-13.51v10.51l22.84 3-22.84 3v10.51z" transform="translate(-3124 -1736)"/>
</symbol><symbol id="icon-smile" viewBox="0 0 27 27">
    
    <path id="Forma_1" data-name="Forma 1" class="cls-1" d="M3080.5 1736a13.5 13.5 0 1 0 13.5 13.5 13.54 13.54 0 0 0-13.5-13.5zm4.72 8.1a2.025 2.025 0 1 1-2.02 2.03 2.071 2.071 0 0 1 2.02-2.03zm-9.45 0a2.025 2.025 0 1 1-2.02 2.03 2.071 2.071 0 0 1 2.02-2.03zm4.73 13.5a8.048 8.048 0 0 1-7.56-5.4h15.12a8.048 8.048 0 0 1-7.56 5.4z" transform="translate(-3067 -1736)"/>
</symbol><symbol id="icon-update" viewBox="0 0 33 35.938">
    
    <path id="Icon_-_Update" data-name="Icon - Update" class="cls-1" d="M752.129 206.544a1.526 1.526 0 0 0-2.114.337 1.48 1.48 0 0 0 .343 2.084 13.1 13.1 0 0 1 4.14 16.706 13.32 13.32 0 0 1-7.79 6.648 13.54 13.54 0 0 1-10.275-.732 13.251 13.251 0 0 1-6.74-7.682 13.024 13.024 0 0 1 .744-10.133 13.477 13.477 0 0 1 10.037-7.178.834.834 0 0 0 .083-.02l.062 2.949a.815.815 0 0 0 .522.736.828.828 0 0 0 .889-.194l4.306-4.432a.8.8 0 0 0-.023-1.142l-4.5-4.248a.822.822 0 0 0-.9-.155.811.811 0 0 0-.49.755l.06 2.81a1.531 1.531 0 0 0-.469-.011 16.5 16.5 0 0 0-12.293 8.791 16.174 16.174 0 0 0 7.347 21.824 16.621 16.621 0 0 0 22.129-7.245 16.047 16.047 0 0 0-5.068-20.468z" transform="translate(-725.969 -200.031)"/>
</symbol><symbol id="icon-users" viewBox="0 0 32 27">
    
    <path id="Forma_1" data-name="Forma 1" class="cls-1" d="M2559.32 321.632a5.823 5.823 0 0 1 2.7 4.329 4.705 4.705 0 1 0-2.7-4.329zm-3.08 9.631a4.7 4.7 0 1 0-4.69-4.7 4.706 4.706 0 0 0 4.69 4.7zm1.99.321h-3.98a6.026 6.026 0 0 0-6.01 6.023v4.882l.01.077.34.105a27.3 27.3 0 0 0 8.17 1.32 16.638 16.638 0 0 0 7.13-1.343l.32-.159h.03v-4.882a6.019 6.019 0 0 0-6.01-6.023zm7.77-4.856h-3.95a5.831 5.831 0 0 1-1.79 4.038 7.149 7.149 0 0 1 5.1 6.849v1.5a16.2 16.2 0 0 0 6.3-1.326l.31-.16h.04v-4.879a6.026 6.026 0 0 0-6.01-6.022zm-17.99-.321a4.65 4.65 0 0 0 2.49-.726 5.828 5.828 0 0 1 2.19-3.713c0-.088.01-.176.01-.264a4.7 4.7 0 1 0-4.69 4.703zm4.21 4.359a5.817 5.817 0 0 1-1.78-4.016c-.15-.011-.29-.022-.44-.022h-3.99a6.017 6.017 0 0 0-6 6.022v4.883l.01.075.33.106a28.109 28.109 0 0 0 6.77 1.275v-1.474a7.161 7.161 0 0 1 5.1-6.849z" transform="translate(-2540 -317)"/>
</symbol></svg>